<?xml version="1.0" encoding="utf-8"?>
<!-- Generator: Adobe Illustrator 23.0.6, SVG Export Plug-In . SVG Version: 6.00 Build 0)  -->
<svg version="1.1" id="Layer_1" xmlns="http://www.w3.org/2000/svg" xmlns:xlink="http://www.w3.org/1999/xlink" x="0px" y="0px"
	 viewBox="0 0 800 600" style="enable-background:new 0 0 800 600;" xml:space="preserve">
<style type="text/css">
	.st0{fill:url(#SVGID_1_);}
	.st1{opacity:0.3;fill:url(#SVGID_2_);}
	.st2{fill:url(#SVGID_3_);}
	.st3{opacity:0.6;fill:url(#SVGID_4_);}
	.st4{fill:url(#SVGID_5_);}
	.st5{fill:url(#SVGID_6_);}
	.st6{fill:url(#SVGID_7_);}
	.st7{fill:url(#SVGID_8_);}
	.st8{fill:url(#SVGID_9_);}
	.st9{fill:url(#SVGID_10_);}
	.st10{fill:url(#SVGID_11_);}
	.st11{fill:url(#SVGID_12_);}
	.st12{fill:url(#SVGID_13_);}
	.st13{fill:url(#SVGID_14_);}
	.st14{fill:url(#SVGID_15_);}
	.st15{fill:url(#SVGID_16_);}
	.st16{fill:url(#SVGID_17_);}
	.st17{fill:url(#SVGID_18_);}
	.st18{fill:url(#SVGID_19_);}
	.st19{fill:url(#SVGID_20_);}
	.st20{fill:url(#SVGID_21_);}
	.st21{fill:url(#SVGID_22_);}
	.st22{fill:url(#SVGID_23_);}
	.st23{fill:url(#SVGID_24_);}
	.st24{fill:url(#SVGID_25_);}
	.st25{fill:url(#SVGID_26_);}
	.st26{fill:url(#SVGID_27_);}
	.st27{fill:url(#SVGID_28_);}
	.st28{fill:url(#SVGID_29_);}
	.st29{fill:url(#SVGID_30_);}
	.st30{fill:url(#SVGID_31_);}
	.st31{fill:url(#SVGID_32_);}
	.st32{fill:url(#SVGID_33_);}
	.st33{fill:url(#SVGID_34_);}
	.st34{fill:url(#SVGID_35_);}
	.st35{fill:url(#SVGID_36_);}
	.st36{fill:url(#SVGID_37_);}
	.st37{fill:url(#SVGID_38_);}
	.st38{fill:url(#SVGID_39_);}
	.st39{fill:url(#SVGID_40_);}
	.st40{fill:url(#SVGID_41_);}
	.st41{fill:url(#SVGID_42_);}
	.st42{opacity:0.6;fill:url(#SVGID_43_);}
	.st43{fill:url(#SVGID_44_);}
	.st44{fill:url(#SVGID_45_);}
	.st45{fill:url(#SVGID_46_);}
	.st46{fill:url(#SVGID_47_);}
	.st47{fill:url(#SVGID_48_);}
	.st48{fill:url(#SVGID_49_);}
	.st49{fill:url(#SVGID_50_);}
	.st50{fill:url(#SVGID_51_);}
	.st51{fill:url(#SVGID_52_);}
	.st52{fill:url(#SVGID_53_);}
	.st53{fill:url(#SVGID_54_);}
	.st54{fill:url(#SVGID_55_);}
	.st55{fill:url(#SVGID_56_);}
	.st56{fill:url(#SVGID_57_);}
	.st57{fill:url(#SVGID_58_);}
	.st58{fill:url(#SVGID_59_);}
	.st59{fill:url(#SVGID_60_);}
	.st60{fill:url(#SVGID_61_);}
	.st61{fill:url(#SVGID_62_);}
	.st62{fill:url(#SVGID_63_);}
	.st63{fill:url(#SVGID_64_);}
	.st64{fill:url(#SVGID_65_);}
	.st65{fill:url(#SVGID_66_);}
	.st66{fill:url(#SVGID_67_);}
	.st67{fill:url(#SVGID_68_);}
	.st68{fill:url(#SVGID_69_);}
	.st69{fill:#FFFFFF;}
	.st70{fill:url(#SVGID_70_);}
	.st71{fill:url(#SVGID_71_);}
	.st72{fill:url(#SVGID_72_);}
	.st73{fill:url(#SVGID_73_);}
	.st74{fill:url(#SVGID_74_);}
	.st75{fill:url(#SVGID_75_);}
	.st76{fill:url(#SVGID_76_);}
	.st77{fill:url(#SVGID_77_);}
	.st78{fill:url(#SVGID_78_);}
	.st79{fill:url(#SVGID_79_);}
	.st80{fill:url(#SVGID_80_);}
	.st81{fill:url(#SVGID_81_);}
	.st82{fill:url(#SVGID_82_);}
</style>
<linearGradient id="SVGID_1_" gradientUnits="userSpaceOnUse" x1="401.5549" y1="86.1013" x2="401.5549" y2="554.0286">
	<stop  offset="0" style="stop-color:#7633FF"/>
	<stop  offset="0.1477" style="stop-color:#7138FF"/>
	<stop  offset="0.3294" style="stop-color:#6447FF"/>
	<stop  offset="0.5289" style="stop-color:#4E60FF"/>
	<stop  offset="0.7412" style="stop-color:#2F83FF"/>
	<stop  offset="0.9614" style="stop-color:#08AFFF"/>
	<stop  offset="1" style="stop-color:#00B8FF"/>
</linearGradient>
<path class="st0" d="M792.25,461.6c-2.35-48.68-31.33-117.45-80.25-168.93c-67.74-71.3-153.89-44.31-174.93-67.84
	C516.02,201.29,433.16,72.06,275.33,72.06c-152.19,0-257.15,144.51-264.46,415.51c0,0,112.17,57.82,337.73,57.82
	C637.01,545.39,792.25,461.6,792.25,461.6z"/>
<linearGradient id="SVGID_2_" gradientUnits="userSpaceOnUse" x1="221.3179" y1="454.4221" x2="542.7674" y2="454.4221">
	<stop  offset="0" style="stop-color:#7700BB"/>
	<stop  offset="1" style="stop-color:#00008B"/>
	<stop  offset="1" style="stop-color:#000000"/>
</linearGradient>
<path class="st1" d="M226.95,459.85c0,0,72.04,28.36,102.69,26.06c30.66-2.3,72.81-8.43,77.4-13.03c4.6-4.6-15.33-15.33,0.77-16.09
	c16.09-0.77,39.09,9.96,75.87,6.9s60.54-7.66,59.01-11.5c-1.53-3.83-15.95-8.66-55.87-16.98c-39.92-8.31-83.61-13.68-103.53-12.15
	c-19.93,1.53-125.69,24.52-142.55,26.06C223.88,450.65,214.69,456.02,226.95,459.85z"/>
<linearGradient id="SVGID_3_" gradientUnits="userSpaceOnUse" x1="159.7469" y1="363.184" x2="165.8511" y2="363.184">
	<stop  offset="0" style="stop-color:#3D3688"/>
	<stop  offset="0.1456" style="stop-color:#484A99"/>
	<stop  offset="0.5353" style="stop-color:#627BC3"/>
	<stop  offset="0.8325" style="stop-color:#7399DD"/>
	<stop  offset="1" style="stop-color:#79A4E7"/>
</linearGradient>
<path class="st2" d="M165.65,362.6c0.6,2.96-0.18,5.62-1.75,5.94c-1.57,0.32-3.34-1.82-3.94-4.78c-0.6-2.96,0.18-5.62,1.75-5.94
	C163.28,357.5,165.04,359.64,165.65,362.6z"/>
<linearGradient id="SVGID_4_" gradientUnits="userSpaceOnUse" x1="508.0884" y1="427.9542" x2="545.0699" y2="427.9542">
	<stop  offset="0" style="stop-color:#88CFDA"/>
	<stop  offset="8.341312e-03" style="stop-color:#89CFD9"/>
	<stop  offset="0.4784" style="stop-color:#C8D9BB"/>
	<stop  offset="0.8218" style="stop-color:#F0DFA7"/>
	<stop  offset="1" style="stop-color:#FFE1A0"/>
</linearGradient>
<polygon class="st3" points="534.91,425.67 542.58,409.83 527.75,420.68 523.99,411.56 523.21,419.92 508.86,412.44 519.18,425.7 
	508.09,428.47 519.84,430.64 512.36,446.08 525.94,436.14 528.88,442.62 529.9,434.98 544.01,441.74 535.44,429.94 545.07,427.54 
	"/>
<linearGradient id="SVGID_5_" gradientUnits="userSpaceOnUse" x1="123.0388" y1="339.1845" x2="167.0608" y2="339.1845">
	<stop  offset="0" style="stop-color:#88CFDA"/>
	<stop  offset="8.341312e-03" style="stop-color:#89CFD9"/>
	<stop  offset="0.4784" style="stop-color:#C8D9BB"/>
	<stop  offset="0.8218" style="stop-color:#F0DFA7"/>
	<stop  offset="1" style="stop-color:#FFE1A0"/>
</linearGradient>
<polygon class="st4" points="154.97,336.47 164.1,317.6 146.44,330.53 141.97,319.67 141.04,329.62 123.96,320.72 136.24,336.51 
	123.04,339.8 137.02,342.38 128.12,360.77 144.29,348.93 147.79,356.65 149.01,347.55 165.8,355.6 155.6,341.55 167.06,338.7 "/>
<g>
	<linearGradient id="SVGID_6_" gradientUnits="userSpaceOnUse" x1="332.5506" y1="580.0123" x2="672.8718" y2="357.7303">
		<stop  offset="0" style="stop-color:#1DACFF"/>
		<stop  offset="0.112" style="stop-color:#20A9FB"/>
		<stop  offset="0.2263" style="stop-color:#28A0EF"/>
		<stop  offset="0.3418" style="stop-color:#3690DA"/>
		<stop  offset="0.458" style="stop-color:#497BBE"/>
		<stop  offset="0.5737" style="stop-color:#625F99"/>
		<stop  offset="0.5853" style="stop-color:#655C95"/>
		<stop  offset="0.6367" style="stop-color:#6F5F91"/>
		<stop  offset="0.723" style="stop-color:#896886"/>
		<stop  offset="0.8336" style="stop-color:#B37774"/>
		<stop  offset="0.9628" style="stop-color:#ED8C5C"/>
		<stop  offset="1" style="stop-color:#FF9254"/>
	</linearGradient>
	<path class="st5" d="M633.3,364.32c0.81,11.28,9.67,19.84,19.77,19.11l29.67-2.14c10.11-0.73,17.64-10.47,16.83-21.75
		c-0.81-11.28-9.67-19.84-19.77-19.11l-29.67,2.14C640.02,343.31,632.48,353.04,633.3,364.32z M644.48,363.52
		c-0.48-6.7,4.55-12.52,11.25-13l19.66-1.42c6.7-0.48,12.52,4.55,13,11.25c0.48,6.7-4.55,12.52-11.25,13l-19.66,1.42
		C650.78,375.25,644.96,370.22,644.48,363.52z"/>
	<linearGradient id="SVGID_7_" gradientUnits="userSpaceOnUse" x1="356.4213" y1="616.5639" x2="696.7444" y2="394.2807">
		<stop  offset="0" style="stop-color:#1DACFF"/>
		<stop  offset="0.112" style="stop-color:#20A9FB"/>
		<stop  offset="0.2263" style="stop-color:#28A0EF"/>
		<stop  offset="0.3418" style="stop-color:#3690DA"/>
		<stop  offset="0.458" style="stop-color:#497BBE"/>
		<stop  offset="0.5737" style="stop-color:#625F99"/>
		<stop  offset="0.5853" style="stop-color:#655C95"/>
		<stop  offset="0.6367" style="stop-color:#6F5F91"/>
		<stop  offset="0.723" style="stop-color:#896886"/>
		<stop  offset="0.8336" style="stop-color:#B37774"/>
		<stop  offset="0.9628" style="stop-color:#ED8C5C"/>
		<stop  offset="1" style="stop-color:#FF9254"/>
	</linearGradient>
	<path class="st6" d="M722.96,384.24l29.51,3.79c7.02,0.9,13.69-2.76,17.56-8.88c-4.92-10.81-10.61-21.67-17.04-32.35l-24.8-3.19
		c-10.05-1.29-19.37,6.76-20.81,17.98C705.93,372.8,712.91,382.95,722.96,384.24z M718.49,363.02c0.86-6.66,6.95-11.37,13.61-10.51
		l19.55,2.51c6.66,0.85,11.36,6.95,10.5,13.61c-0.85,6.66-6.95,11.37-13.61,10.51l-19.56-2.51
		C722.33,375.77,717.63,369.68,718.49,363.02z"/>
	<linearGradient id="SVGID_8_" gradientUnits="userSpaceOnUse" x1="344.2395" y1="597.9131" x2="684.5626" y2="375.6299">
		<stop  offset="0" style="stop-color:#1DACFF"/>
		<stop  offset="0.112" style="stop-color:#20A9FB"/>
		<stop  offset="0.2263" style="stop-color:#28A0EF"/>
		<stop  offset="0.3418" style="stop-color:#3690DA"/>
		<stop  offset="0.458" style="stop-color:#497BBE"/>
		<stop  offset="0.5737" style="stop-color:#625F99"/>
		<stop  offset="0.5853" style="stop-color:#655C95"/>
		<stop  offset="0.6367" style="stop-color:#6F5F91"/>
		<stop  offset="0.723" style="stop-color:#896886"/>
		<stop  offset="0.8336" style="stop-color:#B37774"/>
		<stop  offset="0.9628" style="stop-color:#ED8C5C"/>
		<stop  offset="1" style="stop-color:#FF9254"/>
	</linearGradient>
	<path class="st7" d="M672.96,362.7c-0.11,3.53,3.06,6.5,7.08,6.62l45.46,1.38c4.02,0.12,7.36-2.65,7.47-6.18l0,0
		c0.11-3.53-3.06-6.5-7.08-6.62l-45.46-1.38C676.41,356.39,673.07,359.16,672.96,362.7L672.96,362.7z"/>
	<linearGradient id="SVGID_9_" gradientUnits="userSpaceOnUse" x1="289.3561" y1="513.8843" x2="629.6791" y2="291.6012">
		<stop  offset="0" style="stop-color:#1DACFF"/>
		<stop  offset="0.112" style="stop-color:#20A9FB"/>
		<stop  offset="0.2263" style="stop-color:#28A0EF"/>
		<stop  offset="0.3418" style="stop-color:#3690DA"/>
		<stop  offset="0.458" style="stop-color:#497BBE"/>
		<stop  offset="0.5737" style="stop-color:#625F99"/>
		<stop  offset="0.5853" style="stop-color:#655C95"/>
		<stop  offset="0.6367" style="stop-color:#6F5F91"/>
		<stop  offset="0.723" style="stop-color:#896886"/>
		<stop  offset="0.8336" style="stop-color:#B37774"/>
		<stop  offset="0.9628" style="stop-color:#ED8C5C"/>
		<stop  offset="1" style="stop-color:#FF9254"/>
	</linearGradient>
	<path class="st8" d="M482.94,374.14c2.65,10.99,12.79,17.98,22.64,15.61l28.92-6.97c9.85-2.37,15.68-13.21,13.03-24.21
		c-2.65-11-12.79-17.99-22.64-15.61l-28.92,6.98C486.12,352.3,480.28,363.14,482.94,374.14z M493.83,371.51
		c-1.58-6.53,2.44-13.1,8.97-14.67l19.16-4.62c6.53-1.57,13.09,2.44,14.67,8.97c1.58,6.53-2.44,13.09-8.97,14.67l-19.17,4.62
		C501.97,382.06,495.41,378.04,493.83,371.51z"/>
	<linearGradient id="SVGID_10_" gradientUnits="userSpaceOnUse" x1="307.5523" y1="541.743" x2="647.8754" y2="319.4598">
		<stop  offset="0" style="stop-color:#1DACFF"/>
		<stop  offset="0.112" style="stop-color:#20A9FB"/>
		<stop  offset="0.2263" style="stop-color:#28A0EF"/>
		<stop  offset="0.3418" style="stop-color:#3690DA"/>
		<stop  offset="0.458" style="stop-color:#497BBE"/>
		<stop  offset="0.5737" style="stop-color:#625F99"/>
		<stop  offset="0.5853" style="stop-color:#655C95"/>
		<stop  offset="0.6367" style="stop-color:#6F5F91"/>
		<stop  offset="0.723" style="stop-color:#896886"/>
		<stop  offset="0.8336" style="stop-color:#B37774"/>
		<stop  offset="0.9628" style="stop-color:#ED8C5C"/>
		<stop  offset="1" style="stop-color:#FF9254"/>
	</linearGradient>
	<path class="st9" d="M555.56,359.3c0.42,11.3,8.96,20.17,19.09,19.79l29.73-1.1c10.12-0.37,18-9.84,17.58-21.14
		c-0.42-11.3-8.96-20.17-19.09-19.79l-29.73,1.1C563.01,338.53,555.14,347.99,555.56,359.3z M566.76,358.89
		c-0.25-6.71,4.99-12.35,11.7-12.6l19.7-0.73c6.71-0.25,12.35,4.99,12.59,11.7c0.25,6.71-4.99,12.35-11.7,12.6l-19.7,0.73
		C572.64,370.83,567.01,365.59,566.76,358.89z"/>
	<linearGradient id="SVGID_11_" gradientUnits="userSpaceOnUse" x1="298.2291" y1="527.4684" x2="638.5517" y2="305.1855">
		<stop  offset="0" style="stop-color:#1DACFF"/>
		<stop  offset="0.112" style="stop-color:#20A9FB"/>
		<stop  offset="0.2263" style="stop-color:#28A0EF"/>
		<stop  offset="0.3418" style="stop-color:#3690DA"/>
		<stop  offset="0.458" style="stop-color:#497BBE"/>
		<stop  offset="0.5737" style="stop-color:#625F99"/>
		<stop  offset="0.5853" style="stop-color:#655C95"/>
		<stop  offset="0.6367" style="stop-color:#6F5F91"/>
		<stop  offset="0.723" style="stop-color:#896886"/>
		<stop  offset="0.8336" style="stop-color:#B37774"/>
		<stop  offset="0.9628" style="stop-color:#ED8C5C"/>
		<stop  offset="1" style="stop-color:#FF9254"/>
	</linearGradient>
	<path class="st10" d="M521.8,366.03c0.47,3.5,4.09,5.91,8.07,5.37l45.07-6.09c3.98-0.54,6.83-3.82,6.36-7.32l0,0
		c-0.47-3.51-4.09-5.91-8.07-5.37l-45.07,6.09C524.17,359.25,521.33,362.53,521.8,366.03L521.8,366.03z"/>
	<linearGradient id="SVGID_12_" gradientUnits="userSpaceOnUse" x1="319.4449" y1="559.9514" x2="659.7679" y2="337.6682">
		<stop  offset="0" style="stop-color:#1DACFF"/>
		<stop  offset="0.112" style="stop-color:#20A9FB"/>
		<stop  offset="0.2263" style="stop-color:#28A0EF"/>
		<stop  offset="0.3418" style="stop-color:#3690DA"/>
		<stop  offset="0.458" style="stop-color:#497BBE"/>
		<stop  offset="0.5737" style="stop-color:#625F99"/>
		<stop  offset="0.5853" style="stop-color:#655C95"/>
		<stop  offset="0.6367" style="stop-color:#6F5F91"/>
		<stop  offset="0.723" style="stop-color:#896886"/>
		<stop  offset="0.8336" style="stop-color:#B37774"/>
		<stop  offset="0.9628" style="stop-color:#ED8C5C"/>
		<stop  offset="1" style="stop-color:#FF9254"/>
	</linearGradient>
	<path class="st11" d="M593.14,359.17c-0.29,3.52,2.72,6.65,6.73,6.98l45.33,3.75c4.01,0.33,7.49-2.26,7.78-5.78l0,0
		c0.29-3.52-2.72-6.65-6.73-6.98l-45.33-3.75C596.91,353.06,593.43,355.65,593.14,359.17L593.14,359.17z"/>
	<linearGradient id="SVGID_13_" gradientUnits="userSpaceOnUse" x1="209.0369" y1="390.9125" x2="549.3604" y2="168.6291">
		<stop  offset="0" style="stop-color:#1DC4FF"/>
		<stop  offset="0.112" style="stop-color:#20C0FB"/>
		<stop  offset="0.2263" style="stop-color:#28B4EF"/>
		<stop  offset="0.3418" style="stop-color:#36A0DA"/>
		<stop  offset="0.458" style="stop-color:#4984BE"/>
		<stop  offset="0.5737" style="stop-color:#626099"/>
		<stop  offset="0.5853" style="stop-color:#655C95"/>
		<stop  offset="0.6367" style="stop-color:#6F5F91"/>
		<stop  offset="0.723" style="stop-color:#896886"/>
		<stop  offset="0.8336" style="stop-color:#B37774"/>
		<stop  offset="0.9628" style="stop-color:#ED8C5C"/>
		<stop  offset="1" style="stop-color:#FF9254"/>
	</linearGradient>
	<path class="st12" d="M201.81,367.74c-0.75,13.39,8.36,24.79,20.35,25.47l35.21,1.98c11.99,0.68,22.33-9.63,23.08-23.02
		c0.75-13.39-8.36-24.79-20.35-25.47l-35.22-1.98C212.9,344.04,202.56,354.35,201.81,367.74z M215.08,368.49
		c0.45-7.95,7.25-14.03,15.2-13.58l23.33,1.31c7.95,0.45,14.03,7.25,13.58,15.2c-0.45,7.95-7.25,14.03-15.2,13.58l-23.34-1.31
		C220.71,383.24,214.63,376.43,215.08,368.49z"/>
	<linearGradient id="SVGID_14_" gradientUnits="userSpaceOnUse" x1="244.8472" y1="445.7391" x2="585.1709" y2="223.4555">
		<stop  offset="0" style="stop-color:#1DC4FF"/>
		<stop  offset="0.112" style="stop-color:#20C0FB"/>
		<stop  offset="0.2263" style="stop-color:#28B4EF"/>
		<stop  offset="0.3418" style="stop-color:#36A0DA"/>
		<stop  offset="0.458" style="stop-color:#4984BE"/>
		<stop  offset="0.5737" style="stop-color:#626099"/>
		<stop  offset="0.5853" style="stop-color:#655C95"/>
		<stop  offset="0.6367" style="stop-color:#6F5F91"/>
		<stop  offset="0.723" style="stop-color:#896886"/>
		<stop  offset="0.8336" style="stop-color:#B37774"/>
		<stop  offset="0.9628" style="stop-color:#ED8C5C"/>
		<stop  offset="1" style="stop-color:#FF9254"/>
	</linearGradient>
	<path class="st13" d="M312.64,369.63c-2.2,13.23,5.63,25.55,17.48,27.52l34.79,5.78c11.85,1.97,23.24-7.16,25.44-20.39
		c2.2-13.23-5.63-25.55-17.48-27.52l-34.8-5.78C326.23,347.27,314.84,356.4,312.64,369.63z M325.75,371.81
		c1.3-7.86,8.73-13.16,16.58-11.86l23.06,3.83c7.85,1.3,13.16,8.73,11.86,16.58c-1.3,7.85-8.72,13.16-16.58,11.86l-23.06-3.83
		C329.75,387.08,324.45,379.66,325.75,371.81z"/>
	<linearGradient id="SVGID_15_" gradientUnits="userSpaceOnUse" x1="223.2113" y1="412.6137" x2="563.5334" y2="190.3311">
		<stop  offset="0" style="stop-color:#1DC4FF"/>
		<stop  offset="0.112" style="stop-color:#20C0FB"/>
		<stop  offset="0.2263" style="stop-color:#28B4EF"/>
		<stop  offset="0.3418" style="stop-color:#36A0DA"/>
		<stop  offset="0.458" style="stop-color:#4984BE"/>
		<stop  offset="0.5737" style="stop-color:#626099"/>
		<stop  offset="0.5853" style="stop-color:#655C95"/>
		<stop  offset="0.6367" style="stop-color:#6F5F91"/>
		<stop  offset="0.723" style="stop-color:#896886"/>
		<stop  offset="0.8336" style="stop-color:#B37774"/>
		<stop  offset="0.9628" style="stop-color:#ED8C5C"/>
		<stop  offset="1" style="stop-color:#FF9254"/>
	</linearGradient>
	<path class="st14" d="M248.49,372c-0.1,4.19,3.68,7.68,8.44,7.8l53.91,1.32c4.76,0.12,8.71-3.19,8.81-7.38l0,0
		c0.1-4.19-3.67-7.68-8.44-7.8l-53.91-1.32C252.53,364.5,248.59,367.8,248.49,372L248.49,372z"/>
	<linearGradient id="SVGID_16_" gradientUnits="userSpaceOnUse" x1="262.1345" y1="472.2059" x2="602.4559" y2="249.9238">
		<stop  offset="0" style="stop-color:#1DC4FF"/>
		<stop  offset="0.112" style="stop-color:#20C0FB"/>
		<stop  offset="0.2263" style="stop-color:#28B4EF"/>
		<stop  offset="0.3418" style="stop-color:#36A0DA"/>
		<stop  offset="0.458" style="stop-color:#4984BE"/>
		<stop  offset="0.5737" style="stop-color:#626099"/>
		<stop  offset="0.5853" style="stop-color:#655C95"/>
		<stop  offset="0.6367" style="stop-color:#6F5F91"/>
		<stop  offset="0.723" style="stop-color:#896886"/>
		<stop  offset="0.8336" style="stop-color:#B37774"/>
		<stop  offset="0.9628" style="stop-color:#ED8C5C"/>
		<stop  offset="1" style="stop-color:#FF9254"/>
	</linearGradient>
	<path class="st15" d="M360.65,377.69c-0.87,4.1,2.19,8.23,6.85,9.23l52.74,11.27c4.66,1,9.15-1.52,10.02-5.62l0,0
		c0.88-4.1-2.19-8.23-6.85-9.23l-52.74-11.27C366.01,371.08,361.53,373.59,360.65,377.69L360.65,377.69z"/>
	<linearGradient id="SVGID_17_" gradientUnits="userSpaceOnUse" x1="278.5535" y1="497.3447" x2="618.8766" y2="275.0615">
		<stop  offset="0" style="stop-color:#1DACFF"/>
		<stop  offset="0.112" style="stop-color:#20A9FB"/>
		<stop  offset="0.2263" style="stop-color:#28A0EF"/>
		<stop  offset="0.3418" style="stop-color:#3690DA"/>
		<stop  offset="0.458" style="stop-color:#497BBE"/>
		<stop  offset="0.5737" style="stop-color:#625F99"/>
		<stop  offset="0.5853" style="stop-color:#655C95"/>
		<stop  offset="0.6367" style="stop-color:#6F5F91"/>
		<stop  offset="0.723" style="stop-color:#896886"/>
		<stop  offset="0.8336" style="stop-color:#B37774"/>
		<stop  offset="0.9628" style="stop-color:#ED8C5C"/>
		<stop  offset="1" style="stop-color:#FF9254"/>
	</linearGradient>
	<path class="st16" d="M416.42,398.54c3.71,10.25,14.16,15.86,23.34,12.54l26.95-9.76c9.18-3.32,13.61-14.33,9.9-24.58
		c-3.71-10.25-14.16-15.86-23.34-12.54l-26.95,9.76C417.14,377.29,412.7,388.29,416.42,398.54z M426.57,394.86
		c-2.2-6.09,0.94-12.8,7.03-15.01l17.86-6.47c6.08-2.2,12.8,0.94,15,7.03c2.2,6.08-0.94,12.8-7.03,15l-17.86,6.47
		C435.49,404.09,428.77,400.95,426.57,394.86z"/>
	<linearGradient id="SVGID_18_" gradientUnits="userSpaceOnUse" x1="283.8657" y1="505.479" x2="624.1898" y2="283.1952">
		<stop  offset="0" style="stop-color:#1DACFF"/>
		<stop  offset="0.112" style="stop-color:#20A9FB"/>
		<stop  offset="0.2263" style="stop-color:#28A0EF"/>
		<stop  offset="0.3418" style="stop-color:#3690DA"/>
		<stop  offset="0.458" style="stop-color:#497BBE"/>
		<stop  offset="0.5737" style="stop-color:#625F99"/>
		<stop  offset="0.5853" style="stop-color:#655C95"/>
		<stop  offset="0.6367" style="stop-color:#6F5F91"/>
		<stop  offset="0.723" style="stop-color:#896886"/>
		<stop  offset="0.8336" style="stop-color:#B37774"/>
		<stop  offset="0.9628" style="stop-color:#ED8C5C"/>
		<stop  offset="1" style="stop-color:#FF9254"/>
	</linearGradient>
	<path class="st17" d="M453.64,385.14c1.01,3.25,4.83,4.96,8.53,3.81l41.85-13.02c3.7-1.15,5.88-4.72,4.86-7.97l0,0
		c-1.01-3.25-4.83-4.96-8.53-3.81l-41.85,13.01C454.81,378.31,452.63,381.88,453.64,385.14L453.64,385.14z"/>
	<linearGradient id="SVGID_19_" gradientUnits="userSpaceOnUse" x1="189.2373" y1="360.5982" x2="529.5596" y2="138.3156">
		<stop  offset="0" style="stop-color:#1DC4FF"/>
		<stop  offset="0.112" style="stop-color:#20C0FB"/>
		<stop  offset="0.2263" style="stop-color:#28B4EF"/>
		<stop  offset="0.3418" style="stop-color:#36A0DA"/>
		<stop  offset="0.458" style="stop-color:#4984BE"/>
		<stop  offset="0.5737" style="stop-color:#626099"/>
		<stop  offset="0.5853" style="stop-color:#655C95"/>
		<stop  offset="0.6367" style="stop-color:#6F5F91"/>
		<stop  offset="0.723" style="stop-color:#896886"/>
		<stop  offset="0.8336" style="stop-color:#B37774"/>
		<stop  offset="0.9628" style="stop-color:#ED8C5C"/>
		<stop  offset="1" style="stop-color:#FF9254"/>
	</linearGradient>
	<path class="st18" d="M162.66,362.56l0.83,5.81c6.29-3.01,11.67,3.13,14.67,9.41c3.01,6.29,0.35,13.82-5.94,16.82l-18.45,8.83
		c-6.28,3.01-13.82,0.35-16.82-5.94c-3.01-6.29-5.99-15.14,1.48-27.18c0,0-1.94-2.21-4.85-3.18c-1.42-0.48-5.12-0.97-5.12-0.97
		c-9.14,11.21-7.07,25.77-2.01,36.36c5.06,10.59,16.86,15.49,26.34,10.96l27.85-13.32c9.48-4.54,13.07-16.8,8-27.38
		c-5.06-10.59-17.9-19.45-27.38-14.92L162.66,362.56z"/>
	<linearGradient id="SVGID_20_" gradientUnits="userSpaceOnUse" x1="199.5974" y1="376.4607" x2="539.9203" y2="154.1776">
		<stop  offset="0" style="stop-color:#1DC4FF"/>
		<stop  offset="0.112" style="stop-color:#20C0FB"/>
		<stop  offset="0.2263" style="stop-color:#28B4EF"/>
		<stop  offset="0.3418" style="stop-color:#36A0DA"/>
		<stop  offset="0.458" style="stop-color:#4984BE"/>
		<stop  offset="0.5737" style="stop-color:#626099"/>
		<stop  offset="0.5853" style="stop-color:#655C95"/>
		<stop  offset="0.6367" style="stop-color:#6F5F91"/>
		<stop  offset="0.723" style="stop-color:#896886"/>
		<stop  offset="0.8336" style="stop-color:#B37774"/>
		<stop  offset="0.9628" style="stop-color:#ED8C5C"/>
		<stop  offset="1" style="stop-color:#FF9254"/>
	</linearGradient>
	<path class="st19" d="M64.27,445.59c2.09,13.24,13.41,22.46,25.28,20.59l34.84-5.51c11.87-1.87,19.79-14.13,17.69-27.38
		c-2.09-13.25-13.41-22.47-25.28-20.59l-34.84,5.51C70.1,420.08,62.18,432.34,64.27,445.59z M77.4,443.51
		c-1.24-7.87,4.12-15.25,11.99-16.49l23.09-3.65c7.86-1.24,15.24,4.12,16.48,11.99c1.24,7.86-4.12,15.25-11.98,16.49l-23.09,3.65
		C86.02,456.74,78.64,451.38,77.4,443.51z"/>
	<linearGradient id="SVGID_21_" gradientUnits="userSpaceOnUse" x1="188.2993" y1="359.1621" x2="528.6229" y2="136.8786">
		<stop  offset="0" style="stop-color:#1DC4FF"/>
		<stop  offset="0.112" style="stop-color:#20C0FB"/>
		<stop  offset="0.2263" style="stop-color:#28B4EF"/>
		<stop  offset="0.3418" style="stop-color:#36A0DA"/>
		<stop  offset="0.458" style="stop-color:#4984BE"/>
		<stop  offset="0.5737" style="stop-color:#626099"/>
		<stop  offset="0.5853" style="stop-color:#655C95"/>
		<stop  offset="0.6367" style="stop-color:#6F5F91"/>
		<stop  offset="0.723" style="stop-color:#896886"/>
		<stop  offset="0.8336" style="stop-color:#B37774"/>
		<stop  offset="0.9628" style="stop-color:#ED8C5C"/>
		<stop  offset="1" style="stop-color:#FF9254"/>
	</linearGradient>
	<path class="st20" d="M55.22,459.86c-2.09-13.25-13.41-22.47-25.28-20.59l-16.84,2.66c-0.24,3.35-0.47,6.71-0.67,10.1l13.19-2.08
		c7.86-1.24,15.24,4.12,16.48,11.99c1.24,7.86-4.12,15.25-11.98,16.49l-19.06,3.02c-0.07,2.04-0.13,4.09-0.18,6.14
		c0,0,2.06,1.06,6.19,2.9l20.48-3.24C49.39,485.36,57.31,473.1,55.22,459.86z"/>
	<linearGradient id="SVGID_22_" gradientUnits="userSpaceOnUse" x1="193.4701" y1="367.0796" x2="533.792" y2="144.7971">
		<stop  offset="0" style="stop-color:#1DC4FF"/>
		<stop  offset="0.112" style="stop-color:#20C0FB"/>
		<stop  offset="0.2263" style="stop-color:#28B4EF"/>
		<stop  offset="0.3418" style="stop-color:#36A0DA"/>
		<stop  offset="0.458" style="stop-color:#4984BE"/>
		<stop  offset="0.5737" style="stop-color:#626099"/>
		<stop  offset="0.5853" style="stop-color:#655C95"/>
		<stop  offset="0.6367" style="stop-color:#6F5F91"/>
		<stop  offset="0.723" style="stop-color:#896886"/>
		<stop  offset="0.8336" style="stop-color:#B37774"/>
		<stop  offset="0.9628" style="stop-color:#ED8C5C"/>
		<stop  offset="1" style="stop-color:#FF9254"/>
	</linearGradient>
	<path class="st21" d="M26.67,464.58c1.26,4,5.97,6.07,10.51,4.64l51.42-16.25c4.54-1.44,7.2-5.84,5.94-9.84l0,0
		c-1.26-4-5.97-6.07-10.52-4.64l-51.42,16.25C28.07,456.18,25.41,460.58,26.67,464.58L26.67,464.58z"/>
	<linearGradient id="SVGID_23_" gradientUnits="userSpaceOnUse" x1="198.7849" y1="375.2161" x2="539.1067" y2="152.9337">
		<stop  offset="0" style="stop-color:#1DC4FF"/>
		<stop  offset="0.112" style="stop-color:#20C0FB"/>
		<stop  offset="0.2263" style="stop-color:#28B4EF"/>
		<stop  offset="0.3418" style="stop-color:#36A0DA"/>
		<stop  offset="0.458" style="stop-color:#4984BE"/>
		<stop  offset="0.5737" style="stop-color:#626099"/>
		<stop  offset="0.5853" style="stop-color:#655C95"/>
		<stop  offset="0.6367" style="stop-color:#6F5F91"/>
		<stop  offset="0.723" style="stop-color:#896886"/>
		<stop  offset="0.8336" style="stop-color:#B37774"/>
		<stop  offset="0.9628" style="stop-color:#ED8C5C"/>
		<stop  offset="1" style="stop-color:#FF9254"/>
	</linearGradient>
	<path class="st22" d="M228.45,372.57c0.41,3.65-2.62,6.98-6.76,7.45l-46.9,5.28c-4.14,0.47-7.84-2.11-8.25-5.76l0,0
		c-0.41-3.65,2.62-6.98,6.76-7.45l46.9-5.28C224.35,366.34,228.04,368.92,228.45,372.57L228.45,372.57z"/>
	<linearGradient id="SVGID_24_" gradientUnits="userSpaceOnUse" x1="198.182" y1="374.2936" x2="538.5046" y2="152.0107">
		<stop  offset="0" style="stop-color:#1DC4FF"/>
		<stop  offset="0.112" style="stop-color:#20C0FB"/>
		<stop  offset="0.2263" style="stop-color:#28B4EF"/>
		<stop  offset="0.3418" style="stop-color:#36A0DA"/>
		<stop  offset="0.458" style="stop-color:#4984BE"/>
		<stop  offset="0.5737" style="stop-color:#626099"/>
		<stop  offset="0.5853" style="stop-color:#655C95"/>
		<stop  offset="0.6367" style="stop-color:#6F5F91"/>
		<stop  offset="0.723" style="stop-color:#896886"/>
		<stop  offset="0.8336" style="stop-color:#B37774"/>
		<stop  offset="0.9628" style="stop-color:#ED8C5C"/>
		<stop  offset="1" style="stop-color:#FF9254"/>
	</linearGradient>
	<path class="st23" d="M147.52,391.7c3.12,1.94,3.85,6.38,1.65,9.92l-24.95,40.06c-2.21,3.54-6.52,4.84-9.63,2.9l0,0
		c-3.11-1.94-3.85-6.38-1.65-9.92l24.95-40.06C140.09,391.06,144.4,389.76,147.52,391.7L147.52,391.7z"/>
</g>
<g>
	
		<linearGradient id="SVGID_25_" gradientUnits="userSpaceOnUse" x1="480.9624" y1="398.1445" x2="559.5585" y2="398.1445" gradientTransform="matrix(0.9971 0.0757 -0.0757 0.9971 5.1408 71.6795)">
		<stop  offset="0" style="stop-color:#270036"/>
		<stop  offset="0.5936" style="stop-color:#4F008B"/>
		<stop  offset="1" style="stop-color:#4C24B1"/>
	</linearGradient>
	<path class="st24" d="M454.41,509.94c0.64,13.39,10.89,23.79,22.89,23.21l35.23-1.69c12-0.57,21.21-11.9,20.57-25.29
		c-0.64-13.4-10.89-23.79-22.89-23.22l-35.23,1.69C462.98,485.22,453.77,496.54,454.41,509.94z M467.69,509.31
		c-0.38-7.96,5.75-14.71,13.71-15.09l23.34-1.12c7.95-0.38,14.7,5.76,15.08,13.71c0.38,7.95-5.75,14.71-13.71,15.09l-23.35,1.12
		C474.82,523.39,468.07,517.26,467.69,509.31z"/>
	
		<linearGradient id="SVGID_26_" gradientUnits="userSpaceOnUse" x1="662.5948" y1="-46.4424" x2="741.1901" y2="-46.4424" gradientTransform="matrix(0.9936 -0.1128 0.1128 0.9936 -38.9937 575.1242)">
		<stop  offset="0" style="stop-color:#270036"/>
		<stop  offset="0.5936" style="stop-color:#4F008B"/>
		<stop  offset="1" style="stop-color:#4C24B1"/>
	</linearGradient>
	<path class="st25" d="M614.88,459.04c3.14,13.03,15.16,21.32,26.84,18.51l34.29-8.27c11.68-2.81,18.6-15.67,15.45-28.7
		c-3.14-13.04-15.16-21.32-26.84-18.51l-34.29,8.27C618.65,433.15,611.73,446,614.88,459.04z M627.8,455.93
		c-1.87-7.74,2.89-15.53,10.63-17.39l22.72-5.48c7.74-1.87,15.52,2.89,17.39,10.63c1.87,7.74-2.89,15.52-10.63,17.39l-22.72,5.48
		C637.45,468.42,629.66,463.66,627.8,455.93z"/>
	
		<linearGradient id="SVGID_27_" gradientUnits="userSpaceOnUse" x1="726.9727" y1="365.3861" x2="805.5689" y2="365.3861" gradientTransform="matrix(0.9962 0.0867 -0.0867 0.9962 8.6578 9.5564)">
		<stop  offset="0" style="stop-color:#270036"/>
		<stop  offset="0.5936" style="stop-color:#4F008B"/>
		<stop  offset="1" style="stop-color:#4C24B1"/>
	</linearGradient>
	<path class="st26" d="M700.98,441.44c0.49,13.4,10.63,23.91,22.63,23.47l35.25-1.3c12-0.44,21.33-11.66,20.84-25.07
		c-0.49-13.4-10.63-23.91-22.63-23.47l-35.25,1.3C709.82,416.82,700.48,428.04,700.98,441.44z M714.26,440.95
		c-0.29-7.96,5.92-14.64,13.87-14.94l23.36-0.86c7.95-0.29,14.64,5.92,14.93,13.87c0.3,7.95-5.91,14.64-13.87,14.93l-23.36,0.86
		C721.23,455.12,714.55,448.91,714.26,440.95z"/>
	
		<linearGradient id="SVGID_28_" gradientUnits="userSpaceOnUse" x1="393.9483" y1="412.9495" x2="472.5445" y2="412.9495" gradientTransform="matrix(0.9971 0.0757 -0.0757 0.9971 5.1408 71.6795)">
		<stop  offset="0" style="stop-color:#270036"/>
		<stop  offset="0.5936" style="stop-color:#4F008B"/>
		<stop  offset="1" style="stop-color:#4C24B1"/>
	</linearGradient>
	<path class="st27" d="M366.53,518.11c0.64,13.39,10.89,23.79,22.89,23.22l35.23-1.69c12-0.57,21.21-11.9,20.57-25.29
		c-0.64-13.4-10.89-23.79-22.89-23.22l-35.23,1.69C375.09,493.39,365.88,504.72,366.53,518.11z M379.8,517.48
		c-0.38-7.96,5.75-14.71,13.71-15.09l23.34-1.12c7.95-0.38,14.7,5.76,15.08,13.71c0.38,7.95-5.75,14.71-13.71,15.09l-23.35,1.12
		C386.94,531.57,380.18,525.43,379.8,517.48z"/>
	
		<linearGradient id="SVGID_29_" gradientUnits="userSpaceOnUse" x1="394.8693" y1="414.0081" x2="400.5637" y2="445.327" gradientTransform="matrix(0.9987 -0.0501 0.0501 0.9987 24.7936 104.7161)">
		<stop  offset="0" style="stop-color:#270036"/>
		<stop  offset="0.5936" style="stop-color:#4F008B"/>
		<stop  offset="1" style="stop-color:#4C24B1"/>
	</linearGradient>
	<path class="st28" d="M408.55,519.94c0.56,4.15,4.84,7.01,9.57,6.37l53.44-7.22c4.72-0.64,8.1-4.53,7.53-8.68l0,0
		c-0.56-4.16-4.84-7-9.57-6.37l-53.44,7.22C411.36,511.9,407.99,515.78,408.55,519.94L408.55,519.94z"/>
	
		<linearGradient id="SVGID_30_" gradientUnits="userSpaceOnUse" x1="650.5029" y1="356.2299" x2="656.1973" y2="387.5488" gradientTransform="matrix(0.9987 -0.0501 0.0501 0.9987 24.7936 104.7161)">
		<stop  offset="0" style="stop-color:#270036"/>
		<stop  offset="0.5936" style="stop-color:#4F008B"/>
		<stop  offset="1" style="stop-color:#4C24B1"/>
	</linearGradient>
	<path class="st29" d="M660.95,449.43c0.56,4.15,4.84,7.01,9.57,6.37l53.44-7.22c4.72-0.64,8.1-4.53,7.53-8.68l0,0
		c-0.56-4.16-4.84-7-9.57-6.37l-53.44,7.22C663.76,441.38,660.39,445.27,660.95,449.43L660.95,449.43z"/>
	<linearGradient id="SVGID_31_" gradientUnits="userSpaceOnUse" x1="764.3954" y1="423.5871" x2="771.36" y2="461.8922">
		<stop  offset="0" style="stop-color:#270036"/>
		<stop  offset="0.5936" style="stop-color:#4F008B"/>
		<stop  offset="1" style="stop-color:#4C24B1"/>
	</linearGradient>
	<path class="st30" d="M789.18,437.29l-34.43-2.85c-4.75-0.39-8.88,2.68-9.22,6.86c-0.34,4.18,3.22,7.88,7.97,8.27l38.03,3.15
		C791,447.73,790.22,442.58,789.18,437.29z"/>
	
		<linearGradient id="SVGID_32_" gradientUnits="userSpaceOnUse" x1="302.6118" y1="491.5119" x2="381.2048" y2="491.5119" gradientTransform="matrix(0.9932 0.1165 -0.1165 0.9932 32.6143 -10.4245)">
		<stop  offset="0" style="stop-color:#270036"/>
		<stop  offset="0.5936" style="stop-color:#4F008B"/>
		<stop  offset="1" style="stop-color:#4C24B1"/>
	</linearGradient>
	<path class="st31" d="M275.55,517.85c0.09,13.41,9.91,24.22,21.92,24.13l35.27-0.24c12.01-0.08,21.67-11.02,21.58-24.43
		c-0.09-13.41-9.91-24.22-21.92-24.14l-35.27,0.24C285.12,493.5,275.46,504.44,275.55,517.85z M288.84,517.76
		c-0.06-7.97,6.35-14.46,14.32-14.51l23.37-0.16c7.96-0.06,14.46,6.35,14.51,14.31c0.06,7.96-6.35,14.46-14.31,14.51l-23.37,0.16
		C295.39,532.13,288.89,525.72,288.84,517.76z"/>
	
		<linearGradient id="SVGID_33_" gradientUnits="userSpaceOnUse" x1="294.2714" y1="479.8711" x2="299.9648" y2="511.1844" gradientTransform="matrix(1 -9.100000e-03 9.100000e-03 1 51.0219 23.97)">
		<stop  offset="0" style="stop-color:#270036"/>
		<stop  offset="0.5936" style="stop-color:#4F008B"/>
		<stop  offset="1" style="stop-color:#4C24B1"/>
	</linearGradient>
	<path class="st32" d="M317.46,521.39c0.39,4.17,4.55,7.2,9.3,6.75l53.69-5.02c4.74-0.44,8.28-4.19,7.88-8.36l0,0
		c-0.39-4.18-4.55-7.2-9.3-6.76l-53.69,5.02C320.6,513.47,317.07,517.22,317.46,521.39L317.46,521.39z"/>
	
		<linearGradient id="SVGID_34_" gradientUnits="userSpaceOnUse" x1="213.1452" y1="615.9099" x2="291.7385" y2="615.9099" gradientTransform="matrix(0.9812 0.193 -0.193 0.9812 99.1813 -135.59)">
		<stop  offset="0" style="stop-color:#270036"/>
		<stop  offset="0.5936" style="stop-color:#4F008B"/>
		<stop  offset="1" style="stop-color:#4C24B1"/>
	</linearGradient>
	<path class="st33" d="M188.72,514.68c-0.95,13.38,8,24.91,19.98,25.76l35.18,2.49c11.98,0.85,22.46-9.31,23.41-22.69
		c0.95-13.38-8-24.91-19.99-25.76L212.13,492C200.15,491.15,189.66,501.31,188.72,514.68z M201.97,515.62
		c0.56-7.95,7.45-13.93,15.4-13.36l23.31,1.65c7.94,0.56,13.92,7.45,13.36,15.39c-0.56,7.94-7.45,13.93-15.39,13.36l-23.32-1.65
		C207.39,530.45,201.41,523.56,201.97,515.62z"/>
	
		<linearGradient id="SVGID_35_" gradientUnits="userSpaceOnUse" x1="154.5086" y1="819.8715" x2="233.1035" y2="819.8715" gradientTransform="matrix(0.9459 0.3244 -0.3244 0.9459 220.7256 -336.2529)">
		<stop  offset="0" style="stop-color:#270036"/>
		<stop  offset="0.5936" style="stop-color:#4F008B"/>
		<stop  offset="1" style="stop-color:#4C24B1"/>
	</linearGradient>
	<path class="st34" d="M99.53,494.05c-2.75,13.12,4.55,25.77,16.3,28.23l34.52,7.24c11.76,2.47,23.52-6.18,26.27-19.3
		c2.75-13.13-4.55-25.77-16.31-28.23l-34.52-7.24C114.05,472.29,102.28,480.92,99.53,494.05z M112.54,496.78
		c1.63-7.8,9.27-12.79,17.07-11.15l22.87,4.8c7.79,1.63,12.78,9.27,11.14,17.06c-1.63,7.79-9.27,12.79-17.06,11.15l-22.88-4.8
		C115.89,512.21,110.9,504.57,112.54,496.78z"/>
	
		<linearGradient id="SVGID_36_" gradientUnits="userSpaceOnUse" x1="189.8955" y1="592.0958" x2="195.5894" y2="623.4121" gradientTransform="matrix(0.9977 0.0683 -0.0683 0.9977 114.8767 -99.9205)">
		<stop  offset="0" style="stop-color:#270036"/>
		<stop  offset="0.5936" style="stop-color:#4F008B"/>
		<stop  offset="1" style="stop-color:#4C24B1"/>
	</linearGradient>
	<path class="st35" d="M230.22,521.46c0.07,4.19,3.98,7.53,8.75,7.45l53.92-0.85c4.77-0.07,8.57-3.54,8.51-7.73l0,0
		c-0.06-4.19-3.98-7.53-8.75-7.46l-53.92,0.85C233.97,513.81,230.16,517.27,230.22,521.46L230.22,521.46z"/>
	
		<linearGradient id="SVGID_37_" gradientUnits="userSpaceOnUse" x1="112.2082" y1="869.1988" x2="117.9024" y2="900.5164" gradientTransform="matrix(0.9704 0.2416 -0.2416 0.9704 285.3187 -372.1467)">
		<stop  offset="0" style="stop-color:#270036"/>
		<stop  offset="0.5936" style="stop-color:#4F008B"/>
		<stop  offset="1" style="stop-color:#4C24B1"/>
	</linearGradient>
	<path class="st36" d="M147.96,509.96c-0.67,4.14,2.61,8.11,7.31,8.87l53.24,8.59c4.7,0.76,9.06-1.98,9.73-6.12l0,0
		c0.67-4.14-2.6-8.11-7.31-8.87l-53.24-8.58C152.99,503.07,148.64,505.82,147.96,509.96L147.96,509.96z"/>
	<linearGradient id="SVGID_38_" gradientUnits="userSpaceOnUse" x1="89.1013" y1="491.2692" x2="93.4451" y2="515.16">
		<stop  offset="0" style="stop-color:#270036"/>
		<stop  offset="0.5936" style="stop-color:#4F008B"/>
		<stop  offset="1" style="stop-color:#4C24B1"/>
	</linearGradient>
	<path class="st37" d="M83.83,513.47l34.29-6.59c4.68-0.9,7.83-4.97,7.04-9.08c-0.79-4.12-5.23-6.73-9.91-5.83L62.3,502.15
		c-2.3,0.44-4.22,1.65-5.5,3.25C64.77,507.99,73.78,510.71,83.83,513.47z"/>
	<g>
		<linearGradient id="SVGID_39_" gradientUnits="userSpaceOnUse" x1="562.2809" y1="440.5854" x2="582.2156" y2="492.0834">
			<stop  offset="0" style="stop-color:#270036"/>
			<stop  offset="0.5936" style="stop-color:#4F008B"/>
			<stop  offset="1" style="stop-color:#4C24B1"/>
		</linearGradient>
		<path class="st38" d="M578.57,444.31l0.83,5.81c6.29-3.01,11.67,3.13,14.67,9.41c3.01,6.29,0.35,13.82-5.94,16.82l-18.45,8.83
			c-6.28,3.01-13.82,0.35-16.82-5.94s-5.99-15.14,1.48-27.18c0,0-1.94-2.21-4.85-3.18c-1.42-0.48-5.12-0.97-5.12-0.97
			c-9.14,11.21-7.07,25.77-2.01,36.36c5.06,10.59,16.86,15.49,26.34,10.96l27.85-13.32c9.48-4.54,13.07-16.8,8-27.38
			c-5.06-10.59-17.9-19.45-27.38-14.92L578.57,444.31z"/>
		<linearGradient id="SVGID_40_" gradientUnits="userSpaceOnUse" x1="575.6558" y1="444.9351" x2="581.76" y2="444.9351">
			<stop  offset="0" style="stop-color:#270036"/>
			<stop  offset="0.5936" style="stop-color:#4F008B"/>
			<stop  offset="1" style="stop-color:#4C24B1"/>
		</linearGradient>
		<path class="st39" d="M581.56,444.35c0.6,2.96-0.18,5.62-1.75,5.94c-1.57,0.32-3.34-1.82-3.94-4.78c-0.6-2.96,0.18-5.62,1.75-5.94
			C579.19,439.26,580.95,441.39,581.56,444.35z"/>
		<linearGradient id="SVGID_41_" gradientUnits="userSpaceOnUse" x1="582.4204" y1="457.8063" x2="644.4005" y2="457.8063">
			<stop  offset="0" style="stop-color:#270036"/>
			<stop  offset="0.5936" style="stop-color:#4F008B"/>
			<stop  offset="1" style="stop-color:#4C24B1"/>
		</linearGradient>
		<path class="st40" d="M644.36,454.32c0.41,3.65-2.62,6.98-6.76,7.45l-46.9,5.28c-4.14,0.47-7.84-2.11-8.25-5.76l0,0
			c-0.41-3.65,2.62-6.98,6.76-7.45l46.9-5.28C640.26,448.1,643.95,450.67,644.36,454.32L644.36,454.32z"/>
		
			<linearGradient id="SVGID_42_" gradientUnits="userSpaceOnUse" x1="623.541" y1="1300.1558" x2="662.3177" y2="1300.1558" gradientTransform="matrix(0.9083 0.4182 -0.4182 0.9083 497.5159 -958.0882)">
			<stop  offset="0" style="stop-color:#270036"/>
			<stop  offset="0.5936" style="stop-color:#4F008B"/>
			<stop  offset="1" style="stop-color:#4C24B1"/>
		</linearGradient>
		<path class="st41" d="M563.78,474.59c2.02,3.06,0.83,7.41-2.65,9.7l-39.42,25.95c-3.49,2.29-7.94,1.67-9.96-1.4l0,0
			c-2.02-3.06-0.83-7.41,2.65-9.7l39.42-25.95C557.3,470.9,561.76,471.52,563.78,474.59L563.78,474.59z"/>
	</g>
</g>
<linearGradient id="SVGID_43_" gradientUnits="userSpaceOnUse" x1="270.9315" y1="289.8611" x2="590.8486" y2="289.8611" gradientTransform="matrix(0.9996 -0.03 0.03 0.9996 -8.4054 -35.1554)">
	<stop  offset="0" style="stop-color:#88CFDA"/>
	<stop  offset="8.341312e-03" style="stop-color:#89CFD9"/>
	<stop  offset="0.4784" style="stop-color:#C8D9BB"/>
	<stop  offset="0.8218" style="stop-color:#F0DFA7"/>
	<stop  offset="1" style="stop-color:#FFE1A0"/>
</linearGradient>
<path class="st42" d="M287.15,99.42c274.63,21.42,308.31,308.41,308.31,308.41s5.82-26.46-28.57-116.42
	C532.5,201.45,426.38,71.73,265.98,75.51"/>
<linearGradient id="SVGID_44_" gradientUnits="userSpaceOnUse" x1="113.785" y1="223.6452" x2="396.5727" y2="223.6452">
	<stop  offset="0" style="stop-color:#88CFDA"/>
	<stop  offset="8.341312e-03" style="stop-color:#89CFD9"/>
	<stop  offset="0.4784" style="stop-color:#C8D9BB"/>
	<stop  offset="0.8218" style="stop-color:#F0DFA7"/>
	<stop  offset="1" style="stop-color:#FFE1A0"/>
</linearGradient>
<path class="st43" d="M202.11,331.27c0,0-48.28-95.03,5.36-164c52.65-67.69,189.1-14.81,189.1-14.81s-80.57-51.7-167.64-31.94
	c-124.92,28.36-114.96,163.24-114.96,163.24"/>
<g>
	<linearGradient id="SVGID_45_" gradientUnits="userSpaceOnUse" x1="485.7794" y1="237.4987" x2="524.8795" y2="237.4987">
		<stop  offset="0" style="stop-color:#000036"/>
		<stop  offset="0.738" style="stop-color:#272054"/>
		<stop  offset="1" style="stop-color:#3893E0"/>
	</linearGradient>
	<path class="st44" d="M485.78,231.77c0,0,2.03,4.41,3.73,4.75c1.7,0.34,7.23-1.58,8.93,0.23c1.7,1.81,0.68,7.12,1.92,8.25
		c1.24,1.13,4.63,2.49,4.63,2.49s6.1-2.03,7.23-1.58c1.13,0.45,4.63,5.65,5.08,6.89c0.45,1.24,0.45,1.24,0.45,1.24
		s3.84,0.68,5.99-6.33c2.15-7.01,0.9-10.51-0.9-14.12c-1.81-3.62-4.75-6.89-4.75-6.89s-2.94-7.34-12.88-5.42
		C495.27,223.19,485.78,231.77,485.78,231.77z"/>
	<linearGradient id="SVGID_46_" gradientUnits="userSpaceOnUse" x1="483.2936" y1="248.6525" x2="517.7564" y2="248.6525">
		<stop  offset="0" style="stop-color:#A1BAFF"/>
		<stop  offset="0.2246" style="stop-color:#FFFFFF"/>
	</linearGradient>
	<path class="st45" d="M512.22,245.9c-1.13-0.45-7.23,1.58-7.23,1.58s-3.39-1.36-4.63-2.49c-1.24-1.13-0.23-6.44-1.92-8.25
		c-1.69-1.81-7.23,0.11-8.93-0.23c-1.69-0.34-3.73-4.75-3.73-4.75l-2.49,0.83c0,0,0.15,9.79,0.53,13.48
		c0.38,3.69,0.07,12.28,1.51,15.29c1.43,3.01,2.64,3.47,4.29,3.62c1.66,0.15,4.29-1.73,4.75-2.34c0.45-0.6-0.3-0.75-0.98-1.88
		c-0.68-1.13,0.6-1.81,0.98-1.66c0.38,0.15,1.43,3.16,1.88,3.39c0.45,0.23,1.81-0.23,1.81-0.23s1.05,3.01,2.18,3.24
		c1.13,0.23,4.6-4.14,5.2-4.97c0.6-0.83,2.49-0.75,3.99-0.75c1.51,0,8.32-5.76,8.32-5.76s0,0-0.45-1.24
		C516.85,251.55,513.35,246.35,512.22,245.9z"/>
	<linearGradient id="SVGID_47_" gradientUnits="userSpaceOnUse" x1="396.4815" y1="270.3753" x2="489.6215" y2="270.3753">
		<stop  offset="0" style="stop-color:#311A36"/>
		<stop  offset="1" style="stop-color:#8660DB"/>
	</linearGradient>
	<path class="st46" d="M485.33,261.38c-1.43-3.01-1.13-11.6-1.51-15.29c-0.38-3.69-0.53-13.48-0.53-13.48s0.45-2.98-0.79-2.64
		c-1.24,0.34-5.65,1.02-7.12,0.56c-1.47-0.45-5.31-1.92-10.17-2.26c-4.86-0.34-20.23,5.76-28.14,10.06
		c-7.91,4.29-16.04,11.75-21.13,18.19c-5.08,6.44-6.89,9.6-11.86,13.79c-4.97,4.18-8.36,7.01-7.46,8.7
		c0.9,1.7,3.05,5.76,13.45,11.41s20.45,10.73,25.99,15.25c5.54,4.52,5.88,5.76,7.12,6.55c1.24,0.79,7.46-0.23,9.83-2.37
		c2.37-2.15,2.03-3.5,2.03-3.5s15.14-25.54,22.26-30.62c7.12-5.08,9.83-6.21,10.96-8.02c1.13-1.81,1.36-2.71,1.36-2.71
		C487.96,264.84,486.76,264.39,485.33,261.38z"/>
	<linearGradient id="SVGID_48_" gradientUnits="userSpaceOnUse" x1="481.0338" y1="300.799" x2="517.8212" y2="314.3388">
		<stop  offset="0" style="stop-color:#270036"/>
		<stop  offset="0.5936" style="stop-color:#4F008B"/>
		<stop  offset="1" style="stop-color:#746BA1"/>
	</linearGradient>
	<path class="st47" d="M493.76,315.24c-1.96-7.53-5.27-22.9-6.18-28.47c-0.9-5.57-0.6-17.93-0.6-17.93
		c-0.77,0.74-9.13,6.6-10.23,7.37c-1.64,5.85-3.33,11.72-3.93,13.27c-1.05,2.71,2.41,9.49,3.77,14.01
		c1.36,4.52,10.4,26.21,10.4,26.21s-0.12,0.13-0.34,0.34c0,0,1.17,1.51,2.75,3.2c1.58,1.7,2.03,5.54,2.03,5.54s1.7-0.23,3.73-0.79
		c2.03-0.56,3.95-0.56,3.95-0.56S495.72,322.77,493.76,315.24z"/>
	<linearGradient id="SVGID_49_" gradientUnits="userSpaceOnUse" x1="503.3799" y1="368.3949" x2="511.5551" y2="360.2198">
		<stop  offset="0" style="stop-color:#311A36"/>
		<stop  offset="1" style="stop-color:#6F2C45"/>
	</linearGradient>
	<path class="st48" d="M499.57,360.13l60.66,60c0,0,2.95-0.79,4.2-2.48c1.24-1.7,3.21-5.69,3.21-5.69L454.74,307.71l-4.88,3.85
		L499.57,360.13z"/>
	<linearGradient id="SVGID_50_" gradientUnits="userSpaceOnUse" x1="563.1918" y1="410.5207" x2="578.3663" y2="424.0693">
		<stop  offset="0" style="stop-color:#271D60"/>
		<stop  offset="0.385" style="stop-color:#C5D5FF"/>
		<stop  offset="1" style="stop-color:#2C4D54"/>
	</linearGradient>
	<path class="st49" d="M559.84,419.62l-10.39,12.85l0.8,2.03l9.1,7.26c0,0,18.99-21.29,19.82-22.95
		c0.83-1.66,10.52-20.17,10.52-20.17l-2.72-1.93l-18.2,12.92l-1.61,2.21C567.15,411.84,565.3,417.64,559.84,419.62z"/>
	<linearGradient id="SVGID_51_" gradientUnits="userSpaceOnUse" x1="383.9914" y1="310.8298" x2="433.8056" y2="425.7856">
		<stop  offset="0" style="stop-color:#270036"/>
		<stop  offset="0.5936" style="stop-color:#22003D"/>
		<stop  offset="1" style="stop-color:#272454"/>
	</linearGradient>
	<path class="st50" d="M474.48,421c0.6-2.26-1.36-6.78-3.31-10.85c-1.96-4.07-4.07-13.11-5.27-18.68
		c-1.2-5.57-2.26-25.46-5.12-35.56c-2.86-10.09-16.57-35.55-17.33-38.12c-0.63-2.14,0.31-4.58,0.64-5.33
		c-0.4-0.04-0.71-0.12-0.91-0.24c-1.24-0.79-1.58-2.03-7.12-6.55c-5.54-4.52-15.59-9.6-25.99-15.25c-6.63-3.6-9.9-6.56-11.64-8.67
		c-0.22,0.03-0.34,0.04-0.34,0.04s-5.88,7.68-6.93,13.86c-1.05,6.18-0.15,12.35,1.05,17.63c1.21,5.27,5.57,23.05,5.57,23.05
		s-4.22,31.94-5.42,36.01c-1.21,4.07-7.68,22-8.74,24.41c-1.05,2.41-1.21,6.18-1.21,6.18l-9.04,20.49c0,0,8.89,5.27,14.01,6.03
		c5.12,0.75,9.19-1.96,9.19-1.96s5.73-3.46,6.03-4.52c0.3-1.06,12.35-25.01,14.76-30.58c2.41-5.57,6.93-15.82,6.93-15.82
		s10.85,27.27,18.98,46.85c8.14,19.59,9.19,20.49,9.19,20.49s5.42-1.66,12.05-4.67c6.63-3.01,8.59-4.52,8.59-4.52s0-2.56,1.51-4.37
		c1.51-1.81,2.11-2.86,2.11-2.86S473.88,423.26,474.48,421z"/>
	<linearGradient id="SVGID_52_" gradientUnits="userSpaceOnUse" x1="374.0176" y1="422.881" x2="406.2052" y2="341.6453">
		<stop  offset="0" style="stop-color:#270036"/>
		<stop  offset="0.5936" style="stop-color:#22003D"/>
		<stop  offset="1" style="stop-color:#272454"/>
	</linearGradient>
	<path class="st51" d="M393.28,306.8c-0.25-1.12-1.16-3.8-2.55-6.69c-0.16,4.65,0.58,9.17,1.5,13.17
		c1.21,5.27,5.57,23.05,5.57,23.05s-4.22,31.94-5.42,36.01c-1.21,4.07-7.68,22-8.74,24.41c-1.05,2.41-1.21,6.18-1.21,6.18
		l-9.04,20.49c0,0,8.89,5.27,14.01,6.03c5.12,0.75,9.19-1.96,9.19-1.96s5.73-3.46,6.03-4.52c0.3-1.06,12.35-25.01,14.76-30.58
		c2.41-5.57,6.93-15.82,6.93-15.82s-16.42-37.51-20.64-46.25C399.45,321.57,394.33,311.47,393.28,306.8z"/>
	<linearGradient id="SVGID_53_" gradientUnits="userSpaceOnUse" x1="393.5176" y1="451.6935" x2="401.1818" y2="476.2187">
		<stop  offset="0" style="stop-color:#000000"/>
		<stop  offset="0.5936" style="stop-color:#4F008B"/>
		<stop  offset="1" style="stop-color:#4C24B1"/>
	</linearGradient>
	<path class="st52" d="M403.75,426.12c-1.81-0.29-4.02-0.25-4.67-0.23c-1.31,0.88-2.49,1.59-2.49,1.59s-4.07,2.71-9.19,1.96
		c-5.12-0.75-14.01-6.03-14.01-6.03s-3.09,7.68-3.31,8.81c-0.23,1.13-0.34,8.7-0.34,8.7s2.6,2.71,8.25,1.92
		c5.65-0.79,9.04-3.05,9.04-3.05l0.11-2.26c0,0,3.73,1.02,7.12,0.56c3.39-0.45,12.88-5.08,13.11-6.55
		C407.59,430.08,405.89,426.46,403.75,426.12z"/>
	<linearGradient id="SVGID_54_" gradientUnits="userSpaceOnUse" x1="369.7352" y1="436.3423" x2="407.382" y2="436.3423">
		<stop  offset="0" style="stop-color:#270036"/>
		<stop  offset="0.5936" style="stop-color:#4F008B"/>
		<stop  offset="1" style="stop-color:#4C24B1"/>
	</linearGradient>
	<path class="st53" d="M377.98,442.84c5.65-0.79,9.04-3.05,9.04-3.05l0.11-2.26c0,0,3.73,1.02,7.12,0.56
		c3.39-0.45,12.88-5.08,13.11-6.55c0.07-0.46-0.05-1.13-0.31-1.85c-1.37,2.21-4.62,3.65-8.17,5.01c-4.41,1.7-11.64,1.13-11.64,1.13
		s-0.79,0.68-5.88,1.58c-4.13,0.73-9.45-0.17-11.55-0.66c-0.06,2.12-0.09,4.16-0.09,4.16S372.33,443.64,377.98,442.84z"/>
	<linearGradient id="SVGID_55_" gradientUnits="userSpaceOnUse" x1="474.8939" y1="426.2625" x2="487.1354" y2="465.4355">
		<stop  offset="0" style="stop-color:#000000"/>
		<stop  offset="0.5936" style="stop-color:#4F008B"/>
		<stop  offset="1" style="stop-color:#4C24B1"/>
	</linearGradient>
	<path class="st54" d="M501.6,439.34c-8.81-1.58-11.07-1.24-13.67-2.6c-2.6-1.36-11.19-9.26-11.19-9.26s-0.6,1.05-2.11,2.86
		c-1.51,1.81-1.51,4.37-1.51,4.37s-1.96,1.51-8.59,4.52c-4.42,2.01-8.3,3.41-10.4,4.13v0.05v4.41c0,0,1.13,2.26,4.86,2.49
		c3.73,0.23,10.51-0.11,10.51-0.11l0.23-2.15c0,0,5.54,1.58,10.17,2.49c4.63,0.9,24.63-1.13,26.44-1.92
		C508.15,447.82,510.41,440.92,501.6,439.34z"/>
	<linearGradient id="SVGID_56_" gradientUnits="userSpaceOnUse" x1="454.1408" y1="447.5041" x2="507.9686" y2="447.5041">
		<stop  offset="0" style="stop-color:#311A36"/>
		<stop  offset="1" style="stop-color:#8660DB"/>
	</linearGradient>
	<path class="st55" d="M507.97,445.67c-4.14,1.45-16.11,2.76-22.08,3.05c-6.89,0.34-15.82-2.71-15.82-2.71s-0.45-0.23-4.86-0.23
		c-3.94,0-9.86-1.26-11.07-1.53v3.56c0,0,1.13,2.26,4.86,2.49c3.73,0.23,10.51-0.11,10.51-0.11l0.23-2.15c0,0,5.54,1.58,10.17,2.49
		c4.63,0.9,24.63-1.13,26.44-1.92C507.03,448.31,507.79,447.12,507.97,445.67z"/>
	<linearGradient id="SVGID_57_" gradientUnits="userSpaceOnUse" x1="474.4195" y1="340.3903" x2="491.3244" y2="340.3903">
		<stop  offset="0" style="stop-color:#A1BAFF"/>
		<stop  offset="0.2246" style="stop-color:#FFFFFF"/>
	</linearGradient>
	<path class="st56" d="M490.98,336.77c-0.51-1.41-1.52-3.25-2.32-4.38c-0.74-1.05-1.86-2.2-2.02-2.36c-0.93,0.9-3.61,3.33-6.29,4.18
		c-2.49,0.79-4.56,0.05-5.43-0.36l-0.19,0.06c0,0-0.48,2-0.25,3.73c0.23,1.72,0.51,4.69,1.21,5.17c0.71,0.48,1.78,0.34,1.98,0.65
		c0.2,0.31,0.93,1.02,1.55,1.19c0.62,0.17,0.82,0.17,0.82,0.17s0.79,2.06,1.98,2.23c1.19,0.17,1.38-0.17,1.38-0.17
		s0.06,2.83,0.54,3.42c0.48,0.59,1.58,0.54,2.09,0.11c0.51-0.42,1.95-3.73,2.15-4.83c0.2-1.1,0.76-3.79,0.76-3.79l0.82,0.76
		c0,0,0.73-1.61,1.19-2.17C491.4,339.82,491.49,338.19,490.98,336.77z"/>
	<linearGradient id="SVGID_58_" gradientUnits="userSpaceOnUse" x1="498.6335" y1="328.1667" x2="446.5058" y2="241.8659">
		<stop  offset="0" style="stop-color:#311A36"/>
		<stop  offset="1" style="stop-color:#8660DB"/>
	</linearGradient>
	<path class="st57" d="M450.37,253.62c0,0,2.56,40.23,5.27,47.01c2.71,6.78,11,18.68,13.56,22.75c0,0,5.27,6.33,5.27,7.68
		c0,1.36,0,2.56,0,2.56s2.56,1.66,5.88,0.6c3.32-1.05,6.63-4.52,6.63-4.52s-9.04-21.69-10.4-26.21c-1.36-4.52-4.82-11.3-3.77-14.01
		c1.05-2.71,5.42-18.68,7.08-24.56c1.66-5.88,0.6-12.2,0.6-12.2s-3.77-4.82-14.31-4.67C455.65,248.2,451.58,250.61,450.37,253.62z"
		/>
	<linearGradient id="SVGID_59_" gradientUnits="userSpaceOnUse" x1="489.7622" y1="348.7223" x2="502.8668" y2="348.7223">
		<stop  offset="0" style="stop-color:#A1BAFF"/>
		<stop  offset="1" style="stop-color:#FFFFFF"/>
	</linearGradient>
	<path class="st58" d="M489.76,342.56l8.37,9.28l0.3,2.49c0,0-1.88,1.66-2.18,2.86c-0.3,1.2,0,2.94,0.68,2.94
		c0.68,0,1.58-1.73,2.56-2.19c0.98-0.45,2.26-1.13,2.49-2.03c0.23-0.9,1.36-4.9,0.68-6.48c-0.68-1.58-3.09-7.61-3.24-8.89
		c-0.15-1.28-0.75-3.24-0.75-3.24l-7.23,1.47c0,0-0.07,1.24-0.68,2C490.15,341.53,489.76,342.56,489.76,342.56z"/>
	<linearGradient id="SVGID_60_" gradientUnits="userSpaceOnUse" x1="486.7963" y1="349.4386" x2="491.6553" y2="349.4386">
		<stop  offset="0" style="stop-color:#A1BAFF"/>
		<stop  offset="0.4385" style="stop-color:#FFFFFF"/>
	</linearGradient>
	<path class="st59" d="M488.15,352.39c0,0-1.36-0.51-1.36-1.24c0-0.73,1.07-3.11,1.86-3.84c0.79-0.73,1.81-1.07,2.37-0.62
		c0.56,0.45,0.62,1.19,0.62,1.19s-1.36,1.24-1.92,2.03C489.17,350.7,488.15,352.39,488.15,352.39z"/>
	<linearGradient id="SVGID_61_" gradientUnits="userSpaceOnUse" x1="488.1484" y1="350.985" x2="494.6024" y2="350.985">
		<stop  offset="0" style="stop-color:#A1BAFF"/>
		<stop  offset="0.4385" style="stop-color:#FFFFFF"/>
	</linearGradient>
	<path class="st60" d="M490.64,354.77c-0.06-0.17,1.58-2.99,2.26-3.62c0.68-0.62,1.7-1.75,1.7-1.75s0.11-1.47-0.45-2.03
		c-0.56-0.57-2.49,0.51-2.49,0.51s-1.92,1.81-2.37,2.66c-0.45,0.85-1.13,1.86-1.13,1.86s-0.11,1.3,0.85,1.86
		C489.96,354.82,490.64,354.77,490.64,354.77z"/>
	<linearGradient id="SVGID_62_" gradientUnits="userSpaceOnUse" x1="490.6245" y1="353.2884" x2="497.001" y2="353.2884">
		<stop  offset="0" style="stop-color:#A1BAFF"/>
		<stop  offset="0.4385" style="stop-color:#FFFFFF"/>
	</linearGradient>
	<path class="st61" d="M495.95,349.29c0,0-0.96-0.17-1.58,0.4c-0.62,0.56-1.86,1.92-2.15,2.37c-0.28,0.45-1.58,2.71-1.58,2.71
		s-0.17,1.58,0.68,2.26c0.85,0.68,2.49-0.06,2.49-0.06s1.53-3.05,2.43-4.35C497.13,351.32,497.47,350.42,495.95,349.29z"/>
	<linearGradient id="SVGID_63_" gradientUnits="userSpaceOnUse" x1="493.6419" y1="357.06" x2="497.4845" y2="357.06">
		<stop  offset="0" style="stop-color:#A1BAFF"/>
		<stop  offset="0.4385" style="stop-color:#FFFFFF"/>
	</linearGradient>
	<path class="st62" d="M497.42,355.56c0,0,0.34-1.47-0.51-1.87c-0.85-0.4-2.09,1.24-2.09,1.24s-1.69,3.39-1.02,4.8
		c0.68,1.41,3.13,0.4,3.13,0.4s-1.22-1.58-0.68-2.94C496.8,355.84,497.42,355.56,497.42,355.56z"/>
</g>
<g>
	<linearGradient id="SVGID_64_" gradientUnits="userSpaceOnUse" x1="359.4738" y1="198.1749" x2="307.8686" y2="201.7516">
		<stop  offset="0" style="stop-color:#A1BAFF"/>
		<stop  offset="0.2246" style="stop-color:#FFFFFF"/>
	</linearGradient>
	<path class="st63" d="M349.27,209.59c0,0-1.79-3.19-2.3-4.73c0,0-3.58,1.53-4.85,1.15s-4.98-6.26-4.98-6.26s-0.26,0.51,0.26-2.68
		c0.51-3.19,0-7.41-3.19-6.51c-3.19,0.89-6.64,7.92-6.64,7.92l-3.19,0.64c0,0-1.02-3.45-1.66-4.98s-3.96-2.43-4.85-3.07
		c-0.89-0.64-0.26-7.41-0.26-7.41s0,0-2.94,2.43c-2.94,2.43-3.7,4.47-3.7,4.47s-0.51,3.96,0.13,6.26c0.64,2.3,1.15,3.7,1.15,3.7
		s-0.38,1.15,0,1.66s1.28,1.15,1.02,1.92c-0.26,0.77-1.41,8.43-0.51,8.43c0.89,0,2.04,0.51,2.04,0.51l0.13,1.02
		c0,0,8.05,4.22,16.73,3.45s22.1-4.22,22.1-4.22L349.27,209.59z"/>
	<linearGradient id="SVGID_65_" gradientUnits="userSpaceOnUse" x1="332.4073" y1="207.8707" x2="353.7392" y2="207.8707">
		<stop  offset="0" style="stop-color:#A1BAFF"/>
		<stop  offset="1" style="stop-color:#FFFFFF"/>
	</linearGradient>
	<path class="st64" d="M334.96,203.08c-1.92,1.02-2.55,0.51-2.55,0.51l0.38,5.88c0,0,4.34,6.64,5.49,6.51
		c0.34-0.04,2.85-0.22,6.16-0.54c5.16-1.08,9.3-2.14,9.3-2.14l-4.47-3.7c0,0-1.79-3.19-2.3-4.73c0,0-3.58,1.53-4.85,1.15
		s-4.98-6.26-4.98-6.26S336.88,202.06,334.96,203.08z"/>
	<linearGradient id="SVGID_66_" gradientUnits="userSpaceOnUse" x1="296.322" y1="351.26" x2="330.6983" y2="464.1371">
		<stop  offset="0" style="stop-color:#270036"/>
		<stop  offset="0.5936" style="stop-color:#4F008B"/>
		<stop  offset="1" style="stop-color:#4C24B1"/>
	</linearGradient>
	<path class="st65" d="M299.66,328.47c-1.87,3.92-9.71,15.67-14.48,27.76c-4.77,12.09-8.35,21.63-8.86,23.84
		c-0.51,2.21-2.04,31.85-3.92,45.64s-4.43,22.82-4.43,22.82s4.26,3.07,11.07,2.9c6.81-0.17,10.22-3.24,10.22-3.24
		s3.75-12.6,4.94-19.25c1.19-6.64,3.75-15.16,4.43-24.18c0.68-9.03,0.68-11.41,0.68-11.41s1.53-5.62,2.55-9.88
		c1.02-4.26,1.53-5.96,1.53-5.96l8.35-12.77c0,0,8.9,30.06,14.26,39.9c5.36,9.84,5.75,8.3,9.2,18.01
		c3.45,9.71,9.07,25.93,10.22,27.72s2.3,2.17,0.89,3.83c-1.41,1.66-0.89,9.07-0.89,9.07s5.24,1.66,14.56,1.02
		c9.32-0.64,9.71-3.58,9.71-3.58s-9.2-39.34-13.03-50.71c-3.83-11.37-7.92-18.65-9.2-20.57c0,0-3.07-3.32-3.7-5.75
		c-0.64-2.43-3.45-37.3-1.28-40.88c2.17-3.58,3.19-6.39,3.58-9.71s0.32-7.76,0.32-7.76s-11.16-0.34-22.91-3.15
		c-11.75-2.81-22.4-6.73-22.4-6.73S301.54,324.56,299.66,328.47z"/>
	<linearGradient id="SVGID_67_" gradientUnits="userSpaceOnUse" x1="327.9509" y1="196.4297" x2="331.0166" y2="309.859">
		<stop  offset="0" style="stop-color:#270036"/>
		<stop  offset="0.5936" style="stop-color:#4F008B"/>
		<stop  offset="1" style="stop-color:#4C24B1"/>
	</linearGradient>
	<path class="st66" d="M308.65,233.23c0,0,0.89,15.07-1.41,25.55c-2.3,10.47-7.41,29.12-10.47,36.4c-3.07,7.28-3.7,11.24-3.32,12.52
		s2.3,3.45,2.3,3.45s0.89,1.79,2.17,2.68c1.28,0.89,10.86,5.62,24.27,8.56s27.08,3.32,27.08,3.32s-3.96-26.57-4.22-32.7
		c-0.26-6.13,0.51-10.99,1.66-13.8c1.15-2.81,13.92-23.12,16.22-30.15c2.3-7.03,4.34-18.65,3.07-25.29
		c-1.28-6.64-2.17-8.56-2.17-8.56l0.51-6.39c0,0-5.11,0-9.96,0.26s-13.67,2.17-13.67,2.17s-5.11-1.92-9.45-1.41
		S317.72,213.17,308.65,233.23z"/>
	<linearGradient id="SVGID_68_" gradientUnits="userSpaceOnUse" x1="311.1358" y1="288.4786" x2="311.1358" y2="273.1503">
		<stop  offset="0" style="stop-color:#270036"/>
		<stop  offset="0.5936" style="stop-color:#4F008B"/>
		<stop  offset="1" style="stop-color:#4C24B1"/>
	</linearGradient>
	<path class="st67" d="M321.29,277.04c0,0-16.18-6.81-16.69-6.47c-0.51,0.34-4.09,7.32-3.58,8c0.51,0.68,14.48,7.32,15.67,6.81
		C317.89,284.87,321.29,277.04,321.29,277.04z"/>
	<linearGradient id="SVGID_69_" gradientUnits="userSpaceOnUse" x1="363.8247" y1="234.9993" x2="286.1611" y2="201.2769">
		<stop  offset="0" style="stop-color:#270036"/>
		<stop  offset="0.5936" style="stop-color:#4F008B"/>
		<stop  offset="1" style="stop-color:#4C24B1"/>
	</linearGradient>
	<path class="st68" d="M329.6,243.57c0,0-25.93-12.13-31.42-14.82c-5.49-2.68-23.63-13.8-24.4-16.73s-1.92-10.86-3.83-15.97
		c-1.92-5.11-4.98-10.09-4.98-10.09s6.9-7.92,11.24-9.84c4.34-1.92,8.3,1.28,8.3,1.28s1.53,13.67,4.22,19.03
		c2.68,5.36,3.58,7.92,3.58,7.92s9.45,5.88,17.5,8.3c8.05,2.43,11.24,1.53,11.24,1.53s8.18-4.6,15.07,1.53
		c6.9,6.13,6.9,10.6,6.9,10.6"/>
	<path class="st69" d="M284.17,177.15l-0.17-1.7c0,0-3.07-2.04-6.81-1.19c-3.75,0.85-5.45,3.07-5.45,3.07v1.87
		c0,0,3.41-3.53,6.3-3.66C281.7,175.36,284.17,177.15,284.17,177.15z"/>
	<linearGradient id="SVGID_70_" gradientUnits="userSpaceOnUse" x1="318.0095" y1="179.5126" x2="350.1987" y2="205.0596">
		<stop  offset="0" style="stop-color:#000036"/>
		<stop  offset="0.738" style="stop-color:#38598B"/>
		<stop  offset="1" style="stop-color:#3893E0"/>
	</linearGradient>
	<path class="st70" d="M310.95,190.56c0,0,0.77-2.04,3.7-4.47c2.94-2.43,2.94-2.43,2.94-2.43s-0.64,6.77,0.26,7.41
		c0.89,0.64,4.22,1.53,4.85,3.07s1.66,4.98,1.66,4.98l3.19-0.64c0,0,3.45-7.03,6.64-7.92c3.19-0.89,3.7,3.32,3.19,6.51
		c-0.51,3.19-0.26,2.68-0.26,2.68s3.7,5.88,4.98,6.26s4.85-1.15,4.85-1.15s-1.53-10.22-1.92-13.8c-0.38-3.58-2.94-10.6-7.03-14.82
		c-4.09-4.22-11.37-3.83-15.58-1.92c-4.22,1.92-11.24,9.45-13.54,10.47s-4.47-1.28-4.47-1.28S302.9,190.94,310.95,190.56z"/>
	<linearGradient id="SVGID_71_" gradientUnits="userSpaceOnUse" x1="350.8453" y1="460.9781" x2="346.7577" y2="482.4379">
		<stop  offset="0" style="stop-color:#270036"/>
		<stop  offset="0.5936" style="stop-color:#4F008B"/>
		<stop  offset="1" style="stop-color:#4C24B1"/>
	</linearGradient>
	<path class="st71" d="M346.2,463.66c0,0-4.34,4.66-7.09,6.77c-2.75,2.11-5.56,3.19-6.71,3.39c-1.15,0.19-3.19-0.13-4.28,0.45
		c-1.09,0.57-2.24,1.85-2.24,1.85l-0.64,0.38l-0.32,1.28c0,0,1.34,2.87,4.47,4.02s15.07,1.72,19.22,0.89
		c4.15-0.83,10.86-4.85,10.86-4.85l0.83,2.04l10.03-2.04c0,0,0.38-10.92,0-12.01c-0.38-1.09-1.72-3.96-1.72-3.96
		s-2.68,2.3-10.41,2.36C350.1,464.3,346.2,463.66,346.2,463.66z"/>
	<path d="M329.41,481.8c3.13,1.15,15.07,1.72,19.22,0.89c4.15-0.83,10.86-4.85,10.86-4.85l0.83,2.04l10.03-2.04
		c0,0,0.1-2.75,0.14-5.63c-1.92,0.69-7.35,2.64-9.6,3.52c-2.75,1.09-6.07,3.26-11.05,4.92c-4.98,1.66-14.37,0.89-18.52,0.19
		s-6.07-4.34-6.07-4.34l-0.32,1.28C324.93,477.77,326.28,480.65,329.41,481.8z"/>
	<linearGradient id="SVGID_72_" gradientUnits="userSpaceOnUse" x1="332.5854" y1="323.1006" x2="276.8928" y2="418.1357">
		<stop  offset="0" style="stop-color:#270036"/>
		<stop  offset="0.5936" style="stop-color:#4F008B"/>
		<stop  offset="1" style="stop-color:#4C24B1"/>
	</linearGradient>
	<path class="st72" d="M300.13,327.29c-0.14,0.43-0.29,0.83-0.46,1.19c-1.87,3.92-9.71,15.67-14.48,27.76
		c-4.77,12.09-8.35,21.63-8.86,23.84c-0.51,2.21-2.04,31.85-3.92,45.64s-4.43,22.82-4.43,22.82s4.26,3.07,11.07,2.9
		c6.81-0.17,10.22-3.24,10.22-3.24s3.75-12.6,4.94-19.25c1.19-6.64,3.75-15.16,4.43-24.18c0.68-9.03,0.68-11.41,0.68-11.41
		s1.53-5.62,2.55-9.88c1.02-4.26,1.53-5.96,1.53-5.96l8.35-12.77c0,0-3.11-15.93-4.26-18.61S301.24,334.9,300.13,327.29z"/>
	<linearGradient id="SVGID_73_" gradientUnits="userSpaceOnUse" x1="273.3494" y1="442.5527" x2="267.7729" y2="466.8523">
		<stop  offset="0" style="stop-color:#270036"/>
		<stop  offset="0.5936" style="stop-color:#4F008B"/>
		<stop  offset="1" style="stop-color:#4C24B1"/>
	</linearGradient>
	<path class="st73" d="M289.28,448.2c0,0-3.41,3.07-10.22,3.24c-6.81,0.17-11.07-2.9-11.07-2.9s-5.96,5.79-7.66,6.3
		c-1.7,0.51-7.75,2.04-9.2,2.04c-1.45,0-2.73,0.17-3.49,0.77s-0.85,1.28-0.85,1.28s-0.6,0.85-0.77,1.62
		c-0.17,0.77,1.02,3.49,4.85,3.92c3.83,0.43,12.35,0.68,14.82-0.17c2.47-0.85,5.02-1.7,7.58-1.79c2.55-0.09,4.85-0.26,4.85-0.26
		l0.17,2.13l13.37-0.51c0,0,1.11-11.41,0.6-12.69C291.75,449.91,289.28,448.2,289.28,448.2z"/>
	<path d="M292.01,459.8c-3.52,0.35-8.26,0.79-10.23,0.84c-3.32,0.09-11.58,0.68-15.67,1.53c-4.09,0.85-11.67,1.28-15.67,0.51
		c-2.49-0.48-3.6-1.98-4.08-3.04c-0.14,0.28-0.28,0.6-0.35,0.91c-0.17,0.77,1.02,3.49,4.85,3.92c3.83,0.43,12.35,0.68,14.82-0.17
		c2.47-0.85,5.02-1.7,7.58-1.79c2.55-0.09,4.85-0.26,4.85-0.26l0.17,2.13l13.37-0.51C291.66,463.87,291.84,462.06,292.01,459.8z"/>
	<linearGradient id="SVGID_74_" gradientUnits="userSpaceOnUse" x1="313.6838" y1="167.2858" x2="315.5343" y2="156.5658">
		<stop  offset="0" style="stop-color:#311A36"/>
		<stop  offset="1" style="stop-color:#6F2C45"/>
	</linearGradient>
	<path class="st74" d="M250.78,155.26l125.56,23.8c0,0,2.36-2.65,2.49-4.57c0.13-1.92-0.83-4.63-0.83-4.63l-125.31-25.8
		C252.7,144.07,248.48,149.86,250.78,155.26z"/>
	<linearGradient id="SVGID_75_" gradientUnits="userSpaceOnUse" x1="332.9612" y1="175.1481" x2="351.6547" y2="175.1481">
		<stop  offset="0" style="stop-color:#A1BAFF"/>
		<stop  offset="1" style="stop-color:#FFFFFF"/>
	</linearGradient>
	<path class="st75" d="M340.37,179.28c0,0,6.39-1.11,8.18-1.7s2.72-1.19,2.98-1.7s0.17-4.26-0.6-4.51c-0.77-0.26-2.3,2.38-2.3,2.38
		l-14.9-2.73l-0.77,2.3C332.96,173.32,338.58,175.36,340.37,179.28z"/>
	<linearGradient id="SVGID_76_" gradientUnits="userSpaceOnUse" x1="340.7101" y1="163.349" x2="345.3486" y2="163.349">
		<stop  offset="0" style="stop-color:#A1BAFF"/>
		<stop  offset="0.5027" style="stop-color:#FFFFFF"/>
	</linearGradient>
	<path class="st76" d="M340.71,161.99c0.26,0,1.28-1.36,2.73-1.28c1.45,0.09,1.62,1.53,1.87,2.9c0.26,1.36-0.77,2.72-1.53,2.3
		c-0.77-0.43-1.45-3.41-1.45-3.41L340.71,161.99z"/>
	<linearGradient id="SVGID_77_" gradientUnits="userSpaceOnUse" x1="345.0532" y1="163.7799" x2="348.5987" y2="163.7799">
		<stop  offset="0" style="stop-color:#A1BAFF"/>
		<stop  offset="0.5027" style="stop-color:#FFFFFF"/>
	</linearGradient>
	<path class="st77" d="M345.05,161.22c0,0,2.04-1.19,2.9-0.51c0.85,0.68,0.68,4.43,0.51,5.28c-0.17,0.85-1.28,1.45-1.96,0.77
		c-0.68-0.68-1.19-3.66-1.19-3.66L345.05,161.22z"/>
	<linearGradient id="SVGID_78_" gradientUnits="userSpaceOnUse" x1="352.377" y1="165.1599" x2="355.4518" y2="165.1599">
		<stop  offset="0" style="stop-color:#A1BAFF"/>
		<stop  offset="0.5027" style="stop-color:#FFFFFF"/>
	</linearGradient>
	<path class="st78" d="M352.38,162.67c0,0,0.09,4.17,0.51,4.77c0.43,0.6,2.73,1.28,2.55-1.19S355.02,161.4,352.38,162.67z"/>
	<linearGradient id="SVGID_79_" gradientUnits="userSpaceOnUse" x1="348.545" y1="164.234" x2="352.1201" y2="164.234">
		<stop  offset="0" style="stop-color:#A1BAFF"/>
		<stop  offset="0.5027" style="stop-color:#FFFFFF"/>
	</linearGradient>
	<path class="st79" d="M348.54,161.57c0,0,1.87-0.85,2.64-0.26s1.11,1.02,0.85,2.64c-0.26,1.62-1.19,3.32-1.7,3.41
		c-0.51,0.09-1.53-0.17-1.62-2.47C348.63,162.59,348.54,161.57,348.54,161.57z"/>
	<linearGradient id="SVGID_80_" gradientUnits="userSpaceOnUse" x1="377.0072" y1="171.7327" x2="392.6387" y2="173.2197">
		<stop  offset="0" style="stop-color:#271D60"/>
		<stop  offset="0.385" style="stop-color:#C5D5FF"/>
		<stop  offset="1" style="stop-color:#2C4D54"/>
	</linearGradient>
	<path class="st80" d="M376.35,179.07l-2,15.54l1.62,1.19l10.65,1.19c0,0,4.34-25.89,4.17-27.59c-0.17-1.7-1.7-20.86-1.7-20.86
		l-3.07-0.17l-7.83,18.99l-0.17,2.51C378.01,169.87,379.63,174.85,376.35,179.07z"/>
	<linearGradient id="SVGID_81_" gradientUnits="userSpaceOnUse" x1="312.0818" y1="200.0289" x2="319.3153" y2="200.0289">
		<stop  offset="0" style="stop-color:#270036"/>
		<stop  offset="0.5936" style="stop-color:#4F008B"/>
		<stop  offset="1" style="stop-color:#4C24B1"/>
	</linearGradient>
	<path class="st81" d="M312.8,200.68c0,0,1.79-0.89,2.81-1.53c1.02-0.64,1.15-1.79,2.43-1.02c1.28,0.77,1.28,2.04,1.28,2.04
		s-1.66-0.77-2.94-0.13c-1.28,0.64-4.15,2.14-4.15,2.14S311.65,200.68,312.8,200.68z"/>
	<linearGradient id="SVGID_82_" gradientUnits="userSpaceOnUse" x1="275.4001" y1="159.1389" x2="295.7629" y2="166.4295">
		<stop  offset="0" style="stop-color:#A1BAFF"/>
		<stop  offset="0.4332" style="stop-color:#FFFFFF"/>
	</linearGradient>
	<path class="st82" d="M275.14,161.48c0.6-2.38,5.28-7.83,5.62-9.28c0.34-1.45,1.11-3.66,1.53-3.75c0.43-0.09,1.79-0.77,1.87,0.6
		c0.08,1.36-0.26,3.66-0.26,3.66s1.62-3.92,2.21-4.43c0.6-0.51,2.47,0.09,2.47,1.11c0,1.02-0.26,2.04-0.26,2.04s0.94-2.64,1.7-2.9
		c0.77-0.26,2.21-0.09,2.21,1.36c0,1.45-0.17,2.47-0.17,2.47s1.79-2.04,2.81-1.87c1.02,0.17,1.53,1.45,0.94,3.92
		c-0.6,2.47-4.34,12.09-5.28,12.69c-0.94,0.6-6.9,3.49-6.81,4.17c0.09,0.68,0.26,4.17,0.26,4.17s-2.99-1.29-5.45-1.36
		c-3.07-0.09-4.09,1.02-4.09,1.02S274.54,163.86,275.14,161.48z"/>
</g>
</svg>
